<svg xmlns="http://www.w3.org/2000/svg" version="1.1" xmlns:xlink="http://www.w3.org/1999/xlink" width="512" height="512" x="0" y="0" viewBox="0 0 682.667 682.667" style="enable-background:new 0 0 512 512" xml:space="preserve"><g><defs><clipPath id="a" clipPathUnits="userSpaceOnUse"><path d="M0 512h512V0H0Z" fill="#375e55" opacity="1" data-original="#000000"></path></clipPath></defs><g clip-path="url(#a)" transform="matrix(1.33333 0 0 -1.33333 0 682.667)"><path d="M0 0c7.246 18.564 11.224 38.751 11.224 59.847 0 13.26-1.57 26.151-4.539 38.51-14.081-.129-27.611-2.609-40.201-7.06 2.63-10.049 4.02-20.589 4.02-31.45 0-54.16-34.609-100.23-82.93-117.3-12.59-4.45-26.12-6.93-40.2-7.06-.41-.009-.83-.009-1.24-.009-68.69 0-124.38 55.679-124.38 124.369 0 68.691 55.69 124.37 124.38 124.37 43.301 0 81.43-22.13 103.7-55.69 13.14 4.96 27.07 8.29 41.55 9.741-27.959 51.579-82.58 86.679-145.25 86.679-27.84 0-54.09-6.929-77.119-19.14-.031-.03-.061-.039-.091-.059-.329-.171-.659-.341-.989-.531a.4.4 0 0 0-.111-.05c-51.639-27.939-86.79-82.6-86.79-145.32 0-91.03 74.061-165.099 165.1-165.099 5.58 0 11.11.279 16.551.819a163.8 163.8 0 0 1 41.549 9.74 165 165 0 0 1 43.325 24.359" style="stroke-width:20;stroke-linecap:round;stroke-linejoin:round;stroke-miterlimit:10;stroke-dasharray:none;stroke-opacity:1" transform="translate(328.966 201.975)" fill="none" stroke="#375e55" stroke-width="20" stroke-linecap="round" stroke-linejoin="round" stroke-miterlimit="10" stroke-dasharray="none" stroke-opacity="" data-original="#000000" opacity="1"></path><path d="M0 0c-10.406-3.386-17.145-12.135-18.621-21.897-.273-1.8-1.371-3.366-3.024-4.128h-.001c-1.652-.762-3.557-.578-5.101.384-8.38 5.222-19.409 5.786-28.744.077-10.783-6.594-15.599-20.124-11.442-32.061 2.857-8.2 9.081-14.045 16.459-16.726l48.098-18.791c7.759-3.031 16.483.988 19.222 8.856l16.973 48.767c2.758 7.35 2.361 15.88-2.016 23.38C25.432-1.222 12.02 3.911 0 0" style="stroke-width:20;stroke-linecap:round;stroke-linejoin:round;stroke-miterlimit:10;stroke-dasharray:none;stroke-opacity:1" transform="translate(87.44 499.824)" fill="none" stroke="#375e55" stroke-width="20" stroke-linecap="round" stroke-linejoin="round" stroke-miterlimit="10" stroke-dasharray="none" stroke-opacity="" data-original="#000000" opacity="1"></path><path d="m0 0-16.97-48.76a14.63 14.63 0 0 0-6.259-7.74c-.05-.03-.101-.05-.141-.08-.329-.17-.659-.34-.989-.53a1 1 0 0 0-.151-.07c-3.53-1.7-7.74-1.98-11.689-.44L-84.29-38.83c-7.38 2.68-13.609 8.53-16.46 16.73-4.16 11.93.65 25.46 11.44 32.06 9.331 5.71 20.361 5.14 28.74-.08.9-.56 1.921-.85 2.94-.85.731 0 1.47.15 2.16.47 1.66.76 2.76 2.33 3.031 4.12 1.469 9.77 8.21 18.52 18.619 21.9 12.02 3.91 25.43-1.22 31.8-12.14C2.36 15.88 2.76 7.35 0 0" style="stroke-width:20;stroke-linecap:round;stroke-linejoin:round;stroke-miterlimit:10;stroke-dasharray:none;stroke-opacity:1" transform="translate(121.26 464.302)" fill="none" stroke="#375e55" stroke-width="20" stroke-linecap="round" stroke-linejoin="round" stroke-miterlimit="10" stroke-dasharray="none" stroke-opacity="" data-original="#000000" opacity="1"></path><path d="M0 0c-5.58 0-11.11-.28-16.551-.82-14.197-1.438-28.199-4.693-41.55-9.74C-120.551-34.11-165.09-94.5-165.09-165.1c0-13.25 1.569-26.15 4.529-38.5 14.081.13 27.611 2.61 40.201 7.06a124.4 124.4 0 0 0-4.01 31.44c0 54.16 34.609 100.23 82.92 117.31 13.69 4.099 27.063 7.07 41.45 7.07 68.689 0 124.38-55.69 124.38-124.38S68.689-289.47 0-289.47c-43.301 0-81.431 22.13-103.7 55.69a163.8 163.8 0 0 0-41.55-9.74c27.96-51.57 82.58-86.67 145.25-86.67 91.039 0 165.1 74.06 165.1 165.09C165.1-74.06 91.039 0 0 0" style="stroke-width:20;stroke-linecap:round;stroke-linejoin:round;stroke-miterlimit:10;stroke-dasharray:none;stroke-opacity:1" transform="translate(336.9 341.063)" fill="none" stroke="#375e55" stroke-width="20" stroke-linecap="round" stroke-linejoin="round" stroke-miterlimit="10" stroke-dasharray="none" stroke-opacity="" data-original="#000000" opacity="1"></path><path d="M0 0c-9.592 5.267-20.583 4.188-28.709-1.418-1.498-1.034-3.392-1.306-5.079-.623-1.687.684-2.858 2.198-3.213 3.983-1.931 9.682-9.07 18.107-19.623 21.003-12.189 3.346-25.348-2.407-31.202-13.61-4.022-7.696-4.021-16.234-.923-23.448l19.231-47.922c3.103-7.731 12.005-11.339 19.615-7.948l47.168 21.015c7.245 3.022 13.19 9.152 15.661 17.477C16.521-19.374 11.08-6.083 0 0" style="stroke-width:20;stroke-linecap:round;stroke-linejoin:round;stroke-miterlimit:10;stroke-dasharray:none;stroke-opacity:1" transform="translate(467.26 396.152)" fill="none" stroke="#375e55" stroke-width="20" stroke-linecap="round" stroke-linejoin="round" stroke-miterlimit="10" stroke-dasharray="none" stroke-opacity="" data-original="#000000" opacity="1"></path><path d="M0 0" style="stroke-width:20;stroke-linecap:round;stroke-linejoin:round;stroke-miterlimit:10;stroke-dasharray:none;stroke-opacity:1" transform="translate(307.644 163.907)" fill="none" stroke="#375e55" stroke-width="20" stroke-linecap="round" stroke-linejoin="round" stroke-miterlimit="10" stroke-dasharray="none" stroke-opacity="" data-original="#000000" opacity="1"></path></g></g></svg>